<?xml version="1.0" encoding="utf-8"?>
<!-- Generator: Adobe Illustrator 27.3.1, SVG Export Plug-In . SVG Version: 6.00 Build 0)  -->
<svg version="1.1" xmlns="http://www.w3.org/2000/svg" xmlns:xlink="http://www.w3.org/1999/xlink" x="0px" y="0px"
	 viewBox="0 0 935 396" style="enable-background:new 0 0 935 396;" xml:space="preserve">
<style type="text/css">
	.st0{fill:#1B254B;}
	.st1{display:none;}
	.st2{display:inline;fill:#22294B;}
	.st3{font-family:'SamsungSharpSans';}
	.st4{font-size:162.6603px;}
	.st5{font-family:'SamsungSharpSans-Bold';}
	.st6{font-size:208.4462px;}
	.st7{fill:#22294B;}
</style>
<g id="LOGO_00000070839531680475637660000010324777909673413549_">
	<polygon class="st0" points="122.37,85.59 87.61,85.59 87.61,232.72 122.37,260.04 	"/>
	<polygon class="st0" points="244.88,119.74 244.88,250.11 157.97,319.64 71.05,250.11 71.05,119.74 35.05,119.74 35.05,267.49 
		157.97,364.34 280.89,267.49 280.89,119.74 	"/>
	<polygon class="st0" points="228.32,85.59 193.56,85.59 193.56,260.04 228.32,232.72 	"/>
	<polygon class="st0" points="174.93,273.7 174.93,32.2 157.97,32.2 141,32.2 141,273.7 157.97,288.6 	"/>
</g>
<g id="NAME">
	<text transform="matrix(1 0 0 1 340.4951 163.5996)" class="st1"><tspan x="0" y="0" class="st2 st3 st4">FOUND </tspan><tspan x="0" y="187.41" class="st2 st5 st6">FLOW</tspan></text>
	<g>
		<path class="st7" d="M352.69,44.86h67.18v8.95h-57.74v45.87h57.74v8.95h-57.74v54.98h-9.43V44.86z"/>
		<path class="st7" d="M438.9,104.23c0-33.67,27.33-61,61-61c33.67,0,61,27.33,61,61s-27.33,61-61,61
			C466.23,165.23,438.9,137.9,438.9,104.23z M551.14,104.23c0-28.79-22.12-52.05-51.24-52.05c-28.95,0-51.4,23.26-51.4,52.05
			c0,28.47,22.45,52.05,51.4,52.05C529.02,156.28,551.14,132.69,551.14,104.23z"/>
		<path class="st7" d="M581.07,124.89V44.86h9.43v80.52c0,17.08,13.34,30.9,30.91,30.9c17.4,0,31.07-13.83,31.07-31.07V44.86h9.43
			v80.03c0,22.77-17.57,40.34-40.5,40.34S581.07,147.66,581.07,124.89z"/>
		<path class="st7" d="M685.82,44.86h10.41l76.45,104.1V44.86h9.43V163.6h-10.08L695.25,59.01V163.6h-9.43V44.86z"/>
		<path class="st7" d="M806.51,44.86h33.34c35.79,0,61.49,25.7,61.49,59.37c0,33.83-26.68,59.37-61.16,59.37h-33.67V44.86z
			 M815.95,53.48v101.34h23.58c29.77,0,52.21-21.8,52.21-50.59c0-28.63-21.47-50.75-52.54-50.75H815.95z"/>
		<path class="st7" d="M349.25,198.84h86.09v27.1H377.6v35.02h57.74v27.1H377.6v62.95h-28.35V198.84z"/>
		<path class="st7" d="M451.6,198.84h28.35v125.07h55.66v27.1H451.6V198.84z"/>
		<path class="st7" d="M537.27,274.92c0-43.15,34.39-78.17,77.75-78.17c43.36,0,77.96,35.02,77.96,78.17
			c0,43.36-34.6,78.17-77.96,78.17C571.66,353.09,537.27,318.28,537.27,274.92z M664.84,274.92c0-27.72-22.1-50.24-49.82-50.24
			c-27.72,0-49.61,22.51-49.61,50.24c0,27.72,21.89,50.24,49.61,50.24C642.74,325.16,664.84,302.65,664.84,274.92z"/>
		<path class="st7" d="M691.93,198.84h29.6l28.77,106.52l31.89-106.52h27.93l31.68,106.1l28.56-106.1h28.56l-42.94,152.17h-28.14
			l-31.89-107.35l-31.89,107.35h-28.77L691.93,198.84z"/>
	</g>
</g>
</svg>
