<?xml version="1.0" encoding="utf-8"?>
<!-- Generator: Adobe Illustrator 27.3.1, SVG Export Plug-In . SVG Version: 6.00 Build 0)  -->
<svg version="1.1" id="Layer_1" xmlns="http://www.w3.org/2000/svg" xmlns:xlink="http://www.w3.org/1999/xlink" x="0px" y="0px"
	 viewBox="0 0 1688 396" style="enable-background:new 0 0 1688 396;" xml:space="preserve">
<style type="text/css">
	.st0{fill:#5B8BF7;}
</style>
<g id="LOGO_00000070839531680475637660000010324777909673413549_">
	<polygon class="st0" points="122.4,85.6 87.6,85.6 87.6,232.7 122.4,260 	"/>
	<polygon class="st0" points="244.9,119.7 244.9,250.1 158,319.6 71.1,250.1 71.1,119.7 35,119.7 35,267.5 158,364.3 280.9,267.5 
		280.9,119.7 	"/>
	<polygon class="st0" points="228.3,85.6 193.6,85.6 193.6,260 228.3,232.7 	"/>
	<polygon class="st0" points="174.9,273.7 174.9,32.2 158,32.2 141,32.2 141,273.7 158,288.6 	"/>
</g>
<g id="NAME">
	<g>
		<path class="st0" d="M364.5,123.4h82.6v11h-71v56.4h71v11h-71v67.6h-11.6V123.4z"/>
		<path class="st0" d="M470.5,196.4c0-41.4,33.6-75,75-75s75,33.6,75,75s-33.6,75-75,75S470.5,237.8,470.5,196.4z M608.5,196.4
			c0-35.4-27.2-64-63-64c-35.6,0-63.2,28.6-63.2,64c0,35,27.6,64,63.2,64C581.3,260.4,608.5,231.4,608.5,196.4z"/>
		<path class="st0" d="M645.3,221.8v-98.4h11.6v99c0,21,16.4,38,38,38c21.4,0,38.2-17,38.2-38.2v-98.8h11.6v98.4
			c0,28-21.6,49.6-49.8,49.6S645.3,249.8,645.3,221.8z"/>
		<path class="st0" d="M774.2,123.4H787l94,128v-128h11.6v146h-12.4l-94.4-128.6v128.6h-11.6L774.2,123.4L774.2,123.4z"/>
		<path class="st0" d="M922.5,123.4h41c44,0,75.6,31.6,75.6,73c0,41.6-32.8,73-75.2,73h-41.4V123.4z M934.2,134v124.6h29
			c36.6,0,64.2-26.8,64.2-62.2c0-35.2-26.4-62.4-64.6-62.4H934.2z"/>
		<path class="st0" d="M1108.9,123.4h82.6v26h-55.4V183h55.4v26h-55.4v60.4h-27.2V123.4z"/>
		<path class="st0" d="M1207.2,123.4h27.2v120h53.4v26h-80.6V123.4z"/>
		<path class="st0" d="M1289.3,196.4c0-41.4,33-75,74.6-75s74.8,33.6,74.8,75c0,41.6-33.2,75-74.8,75S1289.3,238,1289.3,196.4z
			 M1411.7,196.4c0-26.6-21.2-48.2-47.8-48.2s-47.6,21.6-47.6,48.2s21,48.2,47.6,48.2S1411.7,223,1411.7,196.4z"/>
		<path class="st0" d="M1437.8,123.4h28.4l27.6,102.2l30.6-102.2h26.8l30.4,101.8l27.4-101.8h27.4l-41.2,146h-27l-30.6-103
			l-30.6,103h-27.6L1437.8,123.4z"/>
	</g>
</g>
</svg>
